<svg width="22" height="38" viewBox="0 0 22 38" fill="none" xmlns="http://www.w3.org/2000/svg">
<path d="M1.25745 1.8075C0.956164 2.10817 0.717134 2.46531 0.554045 2.85847C0.390955 3.25164 0.307007 3.67311 0.307007 4.09875C0.307007 4.5244 0.390955 4.94587 0.554045 5.33903C0.717134 5.73219 0.956164 6.08933 1.25745 6.39L13.8674 19L1.25745 31.61C0.649773 32.2177 0.308383 33.0419 0.308383 33.9012C0.308383 34.7606 0.649773 35.5848 1.25745 36.1925C1.86513 36.8002 2.68931 37.1416 3.5487 37.1416C4.40809 37.1416 5.23227 36.8002 5.83995 36.1925L20.7575 21.275C21.0587 20.9743 21.2978 20.6172 21.4609 20.224C21.6239 19.8309 21.7079 19.4094 21.7079 18.9838C21.7079 18.5581 21.6239 18.1366 21.4609 17.7435C21.2978 17.3503 21.0587 16.9932 20.7575 16.6925L5.83995 1.775C4.60495 0.540002 2.52495 0.540003 1.25745 1.8075Z" fill="#4DBCE9"/>
</svg>
