<svg width="22" height="38" viewBox="0 0 22 38" fill="none" xmlns="http://www.w3.org/2000/svg">
<path d="M20.7425 36.1925C21.0438 35.8918 21.2829 35.5347 21.446 35.1415C21.609 34.7484 21.693 34.3269 21.693 33.9012C21.693 33.4756 21.609 33.0541 21.446 32.661C21.2829 32.2678 21.0438 31.9107 20.7425 31.61L8.13255 19L20.7425 6.39C21.3502 5.78232 21.6916 4.95814 21.6916 4.09875C21.6916 3.23936 21.3502 2.41517 20.7425 1.8075C20.1349 1.19982 19.3107 0.858433 18.4513 0.858433C17.5919 0.858433 16.7677 1.19982 16.16 1.8075L1.24255 16.725C0.941263 17.0257 0.702232 17.3828 0.539143 17.776C0.376055 18.1691 0.292109 18.5906 0.292109 19.0162C0.292109 19.4419 0.376055 19.8634 0.539143 20.2565C0.702232 20.6497 0.941263 21.0068 1.24255 21.3075L16.16 36.225C17.3951 37.46 19.475 37.46 20.7425 36.1925Z" fill="#4DBCE9"/>
</svg>
